<svg width="34" height="34" viewBox="0 0 34 34" fill="none" xmlns="http://www.w3.org/2000/svg">
<circle cx="17" cy="17" r="17" fill="#313131"/>
<path d="M12.4421 25.5294C12.4156 25.4328 12.3768 25.3424 12.3256 25.2581C12.2745 25.1729 12.2111 25.0985 12.1353 25.0351C12.0605 24.9707 11.9738 24.9205 11.8754 24.8845C11.7778 24.8485 11.6689 24.8306 11.5487 24.8306C11.3593 24.8306 11.1897 24.8798 11.0401 24.9783C10.8905 25.0768 10.7721 25.2188 10.685 25.4044C10.5988 25.59 10.5558 25.8135 10.5558 26.0749C10.5558 26.3353 10.5993 26.5583 10.6864 26.7439C10.7736 26.9295 10.8929 27.072 11.0444 27.1715C11.1969 27.2699 11.3711 27.3192 11.5671 27.3192C11.7461 27.3192 11.9042 27.2794 12.0415 27.1999C12.1789 27.1203 12.2859 27.0067 12.3626 26.859C12.4402 26.7112 12.4781 26.5356 12.4762 26.332L12.5614 26.359H11.6296V26.1203H12.7347V26.359C12.7347 26.6071 12.6845 26.8216 12.5842 27.0024C12.4838 27.1833 12.346 27.323 12.1708 27.4215C11.9956 27.5199 11.7944 27.5692 11.5671 27.5692C11.3133 27.5692 11.0913 27.5081 10.9009 27.386C10.7106 27.2628 10.5624 27.0896 10.4563 26.8661C10.3512 26.6416 10.2987 26.3779 10.2987 26.0749C10.2987 25.8467 10.329 25.6407 10.3896 25.457C10.4502 25.2733 10.5359 25.1161 10.6467 24.9854C10.7584 24.8547 10.8905 24.7548 11.043 24.6857C11.1954 24.6156 11.364 24.5806 11.5487 24.5806C11.7077 24.5806 11.8531 24.6056 11.9847 24.6558C12.1173 24.706 12.2338 24.7752 12.3342 24.8632C12.4355 24.9503 12.5183 25.0512 12.5827 25.1658C12.6481 25.2794 12.6921 25.4006 12.7148 25.5294H12.4421ZM13.3086 27.5294H13.0302L14.0884 24.6203H14.3725L15.4308 27.5294H15.1523L14.2404 24.9655H14.2205L13.3086 27.5294ZM13.5089 26.4144H14.9521V26.653H13.5089V26.4144ZM15.9293 24.6203H16.2362L17.2915 27.1544H17.3171L18.3725 24.6203H18.6793V27.5294H18.4293V25.1814H18.4066L17.4251 27.5294H17.1836L16.2021 25.1814H16.1793V27.5294H15.9293V24.6203ZM19.4528 27.5294V24.6203H21.1403V24.859H19.7184V25.9541H21.0508V26.1928H19.7184V27.2908H21.1687V27.5294H19.4528ZM23.4073 25.3476C23.3912 25.1857 23.3197 25.0569 23.1928 24.9612C23.0659 24.8656 22.9064 24.8178 22.7141 24.8178C22.5787 24.8178 22.4594 24.841 22.3562 24.8874C22.2539 24.9338 22.1734 24.9982 22.1147 25.0806C22.0569 25.162 22.0281 25.2548 22.0281 25.359C22.0281 25.4357 22.0446 25.5029 22.0778 25.5607C22.1109 25.6184 22.1554 25.6681 22.2113 25.7098C22.2681 25.7505 22.3306 25.7856 22.3988 25.8149C22.4679 25.8443 22.5375 25.8689 22.6076 25.8888L22.9144 25.9769C23.0072 26.0024 23.1 26.0351 23.1928 26.0749C23.2856 26.1146 23.3704 26.1648 23.4471 26.2254C23.5247 26.2851 23.5868 26.3585 23.6332 26.4456C23.6805 26.5318 23.7042 26.6355 23.7042 26.7567C23.7042 26.912 23.6639 27.0517 23.5835 27.1757C23.503 27.2998 23.3874 27.3983 23.2369 27.4712C23.0863 27.5432 22.9059 27.5791 22.6957 27.5791C22.4978 27.5791 22.3259 27.5465 22.18 27.4811C22.0342 27.4148 21.9196 27.3235 21.8363 27.207C21.753 27.0905 21.7061 26.9556 21.6957 26.8021H21.9684C21.9779 26.9167 22.0157 27.0138 22.082 27.0933C22.1483 27.1729 22.2345 27.2335 22.3406 27.2752C22.4466 27.3159 22.565 27.3362 22.6957 27.3362C22.8406 27.3362 22.9693 27.3121 23.082 27.2638C23.1957 27.2146 23.2847 27.1464 23.3491 27.0592C23.4144 26.9712 23.4471 26.8689 23.4471 26.7524C23.4471 26.6539 23.4215 26.5716 23.3704 26.5053C23.3192 26.438 23.2478 26.3817 23.1559 26.3362C23.065 26.2908 22.9594 26.2505 22.8391 26.2155L22.4911 26.1132C22.2629 26.045 22.0858 25.9508 21.9599 25.8306C21.8339 25.7103 21.771 25.5569 21.771 25.3703C21.771 25.2141 21.8126 25.0768 21.896 24.9584C21.9802 24.8391 22.0939 24.7463 22.2369 24.68C22.3808 24.6128 22.5423 24.5791 22.7212 24.5791C22.9021 24.5791 23.0621 24.6123 23.2013 24.6786C23.3406 24.7449 23.4509 24.8362 23.5323 24.9527C23.6147 25.0682 23.6587 25.1999 23.6644 25.3476H23.4073Z" fill="#E2E0E0"/>
<path d="M4.14427 22L1.43901 12.5455H3.6226L5.18759 19.1147H5.26607L6.99263 12.5455H8.8623L10.5843 19.1286H10.6673L12.2323 12.5455H14.4159L11.7107 22H9.76252L7.96209 15.8185H7.88823L6.09242 22H4.14427ZM17.1939 12.5455L19.479 19.7287H19.5668L21.8565 12.5455H24.0724L20.8132 22H18.2372L14.9734 12.5455H17.1939ZM25.2104 22V12.5455H28.9405C29.6576 12.5455 30.2685 12.6824 30.7733 12.9563C31.278 13.2272 31.6627 13.6042 31.9274 14.0874C32.1951 14.5675 32.329 15.1214 32.329 15.7493C32.329 16.3771 32.1936 16.9311 31.9228 17.4112C31.6519 17.8913 31.2595 18.2653 30.7456 18.533C30.2347 18.8008 29.6161 18.9347 28.8897 18.9347H26.5123V17.3327H28.5666C28.9513 17.3327 29.2683 17.2666 29.5176 17.1342C29.7699 16.9988 29.9577 16.8126 30.0808 16.5756C30.207 16.3356 30.2701 16.0601 30.2701 15.7493C30.2701 15.4354 30.207 15.1615 30.0808 14.9276C29.9577 14.6906 29.7699 14.5075 29.5176 14.3782C29.2652 14.2459 28.9451 14.1797 28.5574 14.1797H27.2093V22H25.2104Z" fill="#E2E0E0"/>
</svg>
