<svg width="24" height="24" viewBox="0 0 24 24" fill="none" xmlns="http://www.w3.org/2000/svg">
<g clip-path="url(#clip0_109_22)">
<path fill-rule="evenodd" clip-rule="evenodd" d="M24 24H19.2V15.6012C19.2 13.2972 18.1836 12.012 16.3608 12.012C14.3772 12.012 13.2 13.3512 13.2 15.6012V24H8.40002V8.4H13.2V10.1544C13.2 10.1544 14.706 7.512 18.0996 7.512C21.4944 7.512 24 9.5832 24 13.8696V24ZM2.93042 5.9052C2.54408 5.90378 2.1618 5.82627 1.80542 5.67707C1.44904 5.52788 1.12554 5.30993 0.853414 5.03569C0.581285 4.76144 0.365853 4.43627 0.219426 4.07874C0.0729993 3.72122 -0.00155432 3.33835 2.45626e-05 2.952C-0.00139632 2.56576 0.0732739 2.18301 0.219772 1.82563C0.36627 1.46824 0.581726 1.14321 0.853839 0.869089C1.12595 0.594969 1.44939 0.377132 1.8057 0.228013C2.162 0.0788947 2.54418 0.00141568 2.93042 0C3.71027 0.0031765 4.45694 0.315937 5.00623 0.869511C5.55553 1.42309 5.86249 2.17215 5.85962 2.952C5.86136 3.33829 5.78695 3.72113 5.64066 4.07865C5.49436 4.43617 5.27905 4.76135 5.00701 5.03561C4.73498 5.30988 4.41156 5.52784 4.05525 5.67705C3.69894 5.82626 3.31671 5.90379 2.93042 5.9052ZM2.45626e-05 24H6.00002V8.4H2.45626e-05V24Z" fill="white"/>
</g>
<defs>
<clipPath id="clip0_109_22">
<rect width="24" height="24" fill="white"/>
</clipPath>
</defs>
</svg>
