<svg width="58" height="34" viewBox="0 0 58 34" fill="none" xmlns="http://www.w3.org/2000/svg">
<path d="M5.76634 18L0.772017 0.545454H4.80327L7.69247 12.6733H7.83736L11.0249 0.545454H14.4766L17.6555 12.6989H17.8089L20.6982 0.545454H24.7294L19.7351 18H16.1385L12.8146 6.58807H12.6783L9.36293 18H5.76634ZM29.858 0.545454L34.0767 13.8068H34.2386L38.4659 0.545454H42.5568L36.5398 18H31.7841L25.7585 0.545454H29.858ZM44.6577 18V0.545454H51.544C52.8679 0.545454 53.9957 0.798295 54.9276 1.30398C55.8594 1.80398 56.5696 2.5 57.0582 3.39204C57.5526 4.27841 57.7997 5.30114 57.7997 6.46023C57.7997 7.61932 57.5497 8.64205 57.0497 9.52841C56.5497 10.4148 55.8253 11.1051 54.8764 11.5994C53.9332 12.0937 52.7912 12.3409 51.4503 12.3409H47.0611V9.38352H50.8537C51.5639 9.38352 52.1491 9.26136 52.6094 9.01705C53.0753 8.76705 53.4219 8.4233 53.6491 7.9858C53.8821 7.54261 53.9986 7.03409 53.9986 6.46023C53.9986 5.88068 53.8821 5.375 53.6491 4.94318C53.4219 4.50568 53.0753 4.16761 52.6094 3.92898C52.1435 3.68466 51.5526 3.5625 50.8366 3.5625H48.348V18H44.6577ZM14.9432 27.0298C14.8608 26.7713 14.75 26.5398 14.6108 26.3352C14.4744 26.1278 14.3111 25.9517 14.1207 25.8068C13.9304 25.6591 13.7131 25.5469 13.4688 25.4702C13.2273 25.3935 12.9616 25.3551 12.6719 25.3551C12.1804 25.3551 11.7372 25.4815 11.3423 25.7344C10.9474 25.9872 10.6349 26.358 10.4048 26.8466C10.1776 27.3324 10.0639 27.9276 10.0639 28.6321C10.0639 29.3395 10.179 29.9375 10.4091 30.4261C10.6392 30.9148 10.9545 31.2855 11.3551 31.5384C11.7557 31.7912 12.2116 31.9176 12.723 31.9176C13.1974 31.9176 13.6108 31.821 13.9631 31.6278C14.3182 31.4347 14.5923 31.1619 14.7855 30.8097C14.9815 30.4545 15.0795 30.0369 15.0795 29.5568L15.4205 29.6207H12.9233V28.5341H16.3537V29.527C16.3537 30.2599 16.1974 30.8963 15.8849 31.4361C15.5753 31.973 15.1463 32.3878 14.598 32.6804C14.0526 32.973 13.4276 33.1193 12.723 33.1193C11.9332 33.1193 11.2401 32.9375 10.6435 32.5739C10.0497 32.2102 9.58665 31.6946 9.25426 31.027C8.92188 30.3565 8.75568 29.5611 8.75568 28.6406C8.75568 27.9446 8.85227 27.3196 9.04545 26.7656C9.23864 26.2116 9.50994 25.7415 9.85938 25.3551C10.2116 24.9659 10.625 24.669 11.0994 24.4645C11.5767 24.2571 12.098 24.1534 12.6634 24.1534C13.1349 24.1534 13.5739 24.223 13.9801 24.3622C14.3892 24.5014 14.7528 24.6989 15.071 24.9545C15.392 25.2102 15.6577 25.5142 15.8679 25.8665C16.0781 26.2159 16.2202 26.6037 16.294 27.0298H14.9432ZM18.4929 33H17.0952L20.2358 24.2727H21.7571L24.8977 33H23.5L21.0327 25.858H20.9645L18.4929 33ZM18.7273 29.5824H23.2614V30.6903H18.7273V29.5824ZM26.158 24.2727H27.756L30.5344 31.0568H30.6367L33.4151 24.2727H35.0131V33H33.7603V26.6847H33.6793L31.1055 32.9872H30.0657L27.4918 26.6804H27.4109V33H26.158V24.2727ZM36.9276 33V24.2727H42.3991V25.4062H38.2443V28.0653H42.1136V29.1946H38.2443V31.8665H42.4503V33H36.9276ZM48.918 26.5653C48.8725 26.1619 48.685 25.8494 48.3555 25.6278C48.0259 25.4034 47.6112 25.2912 47.1112 25.2912C46.7532 25.2912 46.4435 25.348 46.1822 25.4616C45.9208 25.5724 45.7177 25.7259 45.5728 25.9219C45.4308 26.1151 45.3597 26.3352 45.3597 26.5824C45.3597 26.7898 45.408 26.9687 45.5046 27.1193C45.604 27.2699 45.7333 27.3963 45.8924 27.4986C46.0543 27.598 46.2276 27.6818 46.4123 27.75C46.5969 27.8153 46.7745 27.8693 46.945 27.9119L47.7972 28.1335C48.0756 28.2017 48.3612 28.294 48.6538 28.4105C48.9464 28.527 49.2177 28.6804 49.4677 28.8707C49.7177 29.0611 49.9194 29.2969 50.0728 29.5781C50.229 29.8594 50.3072 30.196 50.3072 30.5881C50.3072 31.0824 50.1793 31.5213 49.9237 31.9048C49.6708 32.2884 49.3029 32.5909 48.82 32.8125C48.3398 33.0341 47.7589 33.1449 47.0771 33.1449C46.4237 33.1449 45.8583 33.0412 45.381 32.8338C44.9038 32.6264 44.5302 32.3324 44.2603 31.9517C43.9904 31.5682 43.8413 31.1136 43.8129 30.5881H45.1339C45.1594 30.9034 45.2617 31.1662 45.4407 31.3764C45.6225 31.5838 45.854 31.7386 46.1353 31.8409C46.4194 31.9403 46.7305 31.9901 47.0685 31.9901C47.4407 31.9901 47.7717 31.9318 48.0614 31.8153C48.354 31.696 48.5842 31.5312 48.7518 31.321C48.9194 31.108 49.0032 30.8594 49.0032 30.5753C49.0032 30.3168 48.9293 30.1051 48.7816 29.9403C48.6367 29.7756 48.4393 29.6392 48.1893 29.5312C47.9421 29.4233 47.6623 29.3281 47.3498 29.2457L46.3185 28.9645C45.6197 28.7741 45.0657 28.4943 44.6566 28.125C44.2504 27.7557 44.0472 27.267 44.0472 26.6591C44.0472 26.1562 44.1836 25.7173 44.4563 25.3423C44.729 24.9673 45.0984 24.6761 45.5643 24.4688C46.0302 24.2585 46.5558 24.1534 47.141 24.1534C47.7319 24.1534 48.2532 24.2571 48.7049 24.4645C49.1594 24.6719 49.5174 24.9574 49.7788 25.321C50.0401 25.6818 50.1765 26.0966 50.1879 26.5653H48.918Z" fill="#E2E0E0"/>
</svg>
